<svg width="100" height="100" viewBox="0 0 100 100" fill="none" xmlns="http://www.w3.org/2000/svg">
<g id="jquery">
<g id="jquery_2">
<path id="Vector" d="M5.85743 68.0263C5.95326 68.243 6.06159 68.443 6.17826 68.643C6.23243 68.7597 6.30743 68.8805 6.3741 68.9888C6.48243 69.2055 6.5991 69.4139 6.7116 69.6222L7.36577 70.7222C7.48661 70.9264 7.60328 71.1264 7.74078 71.3264C7.96995 71.718 8.24078 72.1014 8.47829 72.493C8.58662 72.6555 8.68662 72.8181 8.80746 72.9806C9.26579 73.6931 9.68247 74.2847 10.1283 74.8597C10.445 75.2889 10.7616 75.7097 11.1033 76.1306C11.2158 76.2889 11.3408 76.4473 11.4575 76.6056L12.3783 77.7223C12.4908 77.8514 12.6033 78.0014 12.7242 78.1348C13.1325 78.6264 13.5658 79.1014 13.9992 79.5848C13.9992 79.5931 14.0117 79.6015 14.02 79.614C14.5575 80.289 15.1367 80.889 15.77 81.4223L15.7867 81.439C16.12 81.7806 16.4534 82.1181 16.8075 82.4515L17.2284 82.8556C17.6909 83.289 18.1534 83.7181 18.6409 84.1348C18.6492 84.1348 18.6534 84.1432 18.6617 84.1473L18.8992 84.3557C19.3242 84.7265 19.7534 85.0932 20.1909 85.4348L20.7118 85.8723C21.0659 86.1557 21.4326 86.4223 21.7951 86.7015L22.3618 87.1348C22.7493 87.4265 23.1618 87.7099 23.5576 87.9932C23.7034 88.0974 23.8493 88.2015 23.9993 88.2974L24.1201 88.3932L25.291 89.1599L25.791 89.4932C26.4035 89.8849 27.0118 90.2515 27.6202 90.6182C27.7952 90.7057 27.9702 90.8016 28.1327 90.9016C28.5827 91.1599 29.0493 91.4224 29.5035 91.6599C29.7535 91.8016 30.0119 91.9224 30.2702 92.0516C30.5827 92.2266 30.9077 92.3974 31.241 92.5724C31.3327 92.6016 31.4077 92.6307 31.4827 92.6724L31.4994 92.6557C31.6369 92.7182 31.766 92.7849 31.8994 92.8516C32.3994 93.1016 32.9202 93.3391 33.4619 93.5724C33.5619 93.6141 33.6702 93.6557 33.7786 93.7141C34.3786 93.9766 34.9786 94.2266 35.5994 94.4682C35.7411 94.5099 35.8911 94.5807 36.0369 94.6349C36.5994 94.8474 37.1786 95.0641 37.7536 95.2683L37.9619 95.3433C38.5994 95.5599 39.2286 95.7683 39.8786 95.9641C40.0286 96.0058 40.1828 96.0599 40.3411 96.1016C41.0036 96.3016 41.6453 96.5391 42.3162 96.6641C85.1208 104.427 97.5584 71.0555 97.5584 71.0555C87.1083 84.5973 68.5623 88.1682 50.9996 84.1932C50.3496 84.0432 49.6996 83.8348 49.0412 83.6432C48.112 83.3802 47.1908 83.0898 46.2787 82.7723L46.6745 82.8931L46.4162 82.7931C45.8495 82.6015 45.3037 82.389 44.7495 82.1765C44.6139 82.1189 44.4763 82.0661 44.337 82.0181L44.2912 82.0056C43.6787 81.7598 43.0828 81.5098 42.4912 81.2473C42.362 81.2056 42.2536 81.1473 42.1245 81.0973C41.4237 80.7919 40.7291 80.4724 40.0411 80.139L40.6161 80.3931C40.4661 80.3268 40.3188 80.2545 40.1745 80.1765C39.7828 79.9931 39.3911 79.7848 39.0078 79.589C38.7158 79.4506 38.4282 79.3033 38.1453 79.1473L38.2286 79.1889C37.7578 78.9389 37.2869 78.6681 36.8119 78.4139C36.6703 78.3139 36.5078 78.2306 36.3453 78.1389C35.6392 77.7286 34.9418 77.3035 34.2536 76.8639L34.5161 77.0223C34.3397 76.9133 34.1673 76.798 33.9994 76.6764L34.0244 76.6931C33.5766 76.418 33.1374 76.129 32.7077 75.8264C32.566 75.7347 32.4369 75.6347 32.291 75.5347C31.8421 75.2283 31.4003 74.9116 30.966 74.5847L31.066 74.6556C30.891 74.5139 30.7035 74.3806 30.516 74.2431C30.1494 73.9556 29.7785 73.6806 29.4118 73.3806L28.9202 72.9889C28.3962 72.572 27.8821 72.1427 27.3785 71.7014L27.3743 71.6972L25.9285 70.3847L25.5118 69.993C25.1701 69.6472 24.8201 69.318 24.4701 68.9763L24.066 68.5597C23.6346 68.1325 23.2136 67.6948 22.8034 67.2472L22.7784 67.218L22.7076 67.1597C22.2664 66.6751 21.8317 66.1848 21.4034 65.6888C21.2909 65.5597 21.1868 65.4221 21.0701 65.2846L20.1242 64.1388C19.6979 63.6033 19.2811 63.0601 18.8742 62.5096L18.7076 62.2763C8.96579 49.0428 5.44075 30.7802 13.2367 15.7967L6.35326 24.5009C-2.501 37.1636 -1.40515 53.6304 5.36575 67.0763C5.51992 67.4055 5.69076 67.7138 5.85743 68.0263Z" fill="#1266A9"/>
<path id="Vector_2" d="M35.6786 49.7845L35.6328 49.7179L35.5952 49.6678L35.6786 49.7845Z" fill="black"/>
<path id="Vector_3" d="M40.337 55.251L40.712 55.626C41.187 56.0844 41.6745 56.5302 42.1703 56.976L42.2328 57.0302C42.7328 57.4719 43.2953 57.9344 43.8745 58.3844L43.962 58.4511C44.1037 58.5469 44.2245 58.6594 44.362 58.7552C44.9453 59.2052 45.5328 59.6344 46.1453 60.0636L46.2079 60.1011C46.4662 60.2886 46.7412 60.4594 47.0329 60.6428C47.1495 60.7178 47.2829 60.8178 47.4079 60.8928C47.8495 61.1761 48.2829 61.4386 48.7287 61.7094C48.7995 61.7386 48.862 61.7761 48.9287 61.8053C49.3037 62.0344 49.712 62.2553 50.1037 62.4553C50.2412 62.5386 50.3746 62.6011 50.5162 62.6803C50.7954 62.8178 51.0704 62.9636 51.3371 63.1053L51.4704 63.1636C52.0329 63.4386 52.6079 63.6969 53.1704 63.9511C53.3121 64.0053 53.4329 64.0511 53.5538 64.1095C54.0163 64.3095 54.4871 64.5011 54.9496 64.6761C55.1579 64.747 55.3538 64.8303 55.5496 64.8928C55.9746 65.0511 56.4205 65.197 56.8413 65.3428L57.4246 65.5303C58.033 65.7178 58.6496 65.9636 59.2955 66.0636C92.35 71.5054 100 46.1843 100 46.1843C93.1125 56.0469 79.7832 60.7469 65.5789 57.076C64.8698 56.8972 64.1667 56.6957 63.4705 56.4719L63.708 56.5385C63.508 56.4844 63.333 56.4219 63.1413 56.3635C62.708 56.2135 62.2622 56.0677 61.8413 55.9135L61.2413 55.6885C60.7747 55.501 60.2997 55.326 59.8455 55.126C59.7038 55.0635 59.5746 55.0219 59.4663 54.9594C58.883 54.6969 58.2955 54.4385 57.7246 54.1635L56.8663 53.7177L56.3705 53.4677C55.9871 53.2677 55.6329 53.0593 55.2663 52.8468C55.1728 52.8029 55.0823 52.7528 54.9954 52.6968L55.0079 52.701C54.5663 52.426 54.1079 52.1593 53.6829 51.8802C53.5413 51.801 53.4121 51.7052 53.2788 51.6218L52.4121 51.0593C51.8121 50.6427 51.2246 50.1968 50.6287 49.7635C50.4954 49.6426 50.3662 49.5426 50.2371 49.4343C43.9912 44.5468 39.0661 37.8675 36.7286 30.3049C34.2661 22.4424 34.8077 13.6256 39.0619 6.47137L33.8327 13.8381C27.4118 23.009 27.7743 35.2675 32.7744 44.9676C33.6869 46.7593 34.6119 48.2718 35.6327 49.7135C36.5828 51.0718 37.6328 52.6635 38.8994 53.7552C39.3495 54.2677 39.8328 54.7552 40.337 55.251Z" fill="#1266A9"/>
<path id="Vector_4" d="M56.9413 5.86303C53.1537 11.3922 52.7912 18.259 55.3996 24.3549C58.1704 30.8299 63.833 35.9133 70.4331 38.3217C70.7039 38.4258 70.9664 38.5133 71.2456 38.6133L71.6123 38.7258C71.9956 38.8467 72.3831 38.9883 72.7789 39.0759C91.0333 42.5801 95.975 29.7508 97.3042 27.8632C92.9583 34.0716 85.6708 35.5633 76.729 33.4008C75.9515 33.2112 75.1862 32.9747 74.4373 32.6925L74.5748 32.7383C73.6429 32.4158 72.7303 32.0402 71.8414 31.6133L71.9998 31.6841C70.2914 30.8508 68.8247 29.9508 67.4622 28.9174C59.4705 22.8757 54.5287 11.3714 59.7455 2.00049L56.9413 5.86303Z" fill="#1266A9"/>
</g>
</g>
</svg>
