<svg width="100" height="100" viewBox="0 0 100 100" fill="none" xmlns="http://www.w3.org/2000/svg">
<g id="bash">
<g id="bash_2">
<path id="Vector" d="M87.3558 20.4229L55.8304 1.69405C52.1016 -0.509343 47.4405 -0.509343 43.627 1.69405L12.1016 20.4229C8.37276 22.6262 5.99988 26.7788 5.99988 31.2703V68.7279C5.99988 73.2194 8.28801 77.2872 12.1016 79.5754L43.627 98.3042C45.4914 99.4059 47.61 99.9991 49.7287 99.9991C51.8473 99.9991 53.966 99.4059 55.8304 98.3042L87.3558 79.5754C91.0846 77.372 93.4575 73.2194 93.4575 68.7279V31.1856C93.4575 26.7788 91.1693 22.6262 87.3558 20.4229Z" fill="white"/>
<path id="Vector_2" d="M87.3559 20.4229L55.8305 1.69406C53.9661 0.592366 51.8474 -0.000854492 49.7288 -0.000854492C47.6102 -0.000854492 45.4915 0.592366 43.6271 1.69406L12.1017 20.4229C8.37288 22.6263 6 26.7788 6 31.2703V68.7279C6 73.2195 8.28814 77.2873 12.1017 79.5754L43.6271 98.3042C45.4915 99.4059 47.6102 99.9991 49.7288 99.9991C51.8474 99.9991 53.9661 99.4059 55.8305 98.3042L87.3559 79.5754C91.0847 77.372 93.4576 73.2195 93.4576 68.7279V31.1856C93.4576 26.7788 91.1695 22.6263 87.3559 20.4229ZM44.7288 96.2703L13.2034 77.5415C10.1525 75.6771 8.20339 72.2873 8.20339 68.6432V31.1856C8.20339 27.5415 10.1525 24.0669 13.2034 22.2873L44.7288 3.55847C46.2542 2.62626 47.9491 2.20253 49.7288 2.20253C51.5085 2.20253 53.2034 2.71101 54.7288 3.55847L86.2542 22.2873C88.8813 23.8127 90.5762 26.5246 91.0847 29.4907C90.0678 27.2873 87.6949 26.6093 84.8983 28.2195L55.1525 46.694C51.4237 48.8974 48.7118 51.2703 48.7118 55.7618V92.5415C48.7118 95.2533 49.8135 96.9483 51.4237 97.4567C50.9152 97.5415 50.322 97.6262 49.7288 97.6262C48.0339 97.711 46.2542 97.2025 44.7288 96.2703Z" fill="#2A3238"/>
<path id="Vector_3" d="M79.1354 72.2872L71.2541 76.9482C71.0846 77.0329 70.9151 77.2024 70.9151 77.4566V79.4905C70.9151 79.7448 71.0846 79.8295 71.2541 79.7448L79.2202 74.9143C79.3897 74.8295 79.4744 74.5753 79.4744 74.321V72.5414C79.4744 72.2872 79.3049 72.2024 79.1354 72.2872Z" fill="#4DA925"/>
<path id="Vector_4" d="M62.3558 54.9991C62.61 54.8296 62.7795 54.9991 62.8643 55.3381V58.05C63.966 57.6262 64.9829 57.4567 65.9151 57.711C66.0846 57.7957 66.1694 58.05 66.0846 58.3042L65.4914 60.6771C65.4066 60.8466 65.3219 61.0161 65.2372 61.1856C65.1524 61.2703 65.1524 61.2703 65.0677 61.2703C64.9829 61.2703 64.8982 61.355 64.8134 61.2703C64.3897 61.1855 63.4575 60.9313 61.9321 61.7788C60.3219 62.6262 59.7287 63.9822 59.8134 64.9991C59.8134 66.2703 60.4914 66.6093 62.61 66.6093C65.4914 66.694 66.7626 67.9652 66.8473 70.8466C66.8473 73.7279 65.3219 76.8635 62.949 78.7279L63.0338 81.4398C63.0338 81.7788 62.8643 82.1177 62.61 82.2872L60.9999 83.2194C60.7456 83.3889 60.5761 83.2194 60.4914 82.8805V80.2533C59.1355 80.8466 57.7795 80.9313 56.8473 80.5923C56.6778 80.5076 56.5931 80.2533 56.6778 79.9991L57.2711 77.5415C57.3558 77.372 57.4405 77.1178 57.5253 77.033C57.61 76.9483 57.61 76.9483 57.6948 76.9483C57.7795 76.8635 57.8643 76.8635 57.949 76.9483C58.8812 77.2872 60.1524 77.1177 61.2541 76.5245C62.7795 75.7618 63.7117 74.2364 63.7117 72.711C63.7117 71.355 62.949 70.7618 61.1694 70.7618C58.8812 70.7618 56.7626 70.3381 56.6778 66.9483C56.6778 64.1516 58.1185 61.2703 60.4067 59.4906V56.7788C60.4067 56.4398 60.5761 56.1008 60.8304 55.9313L62.3558 54.9991Z" fill="white"/>
</g>
</g>
</svg>
