<svg width="100" height="100" viewBox="0 0 100 100" fill="none" xmlns="http://www.w3.org/2000/svg">
<g id="bootstrap5">
<g id="bootstrap5_2">
<path id="Vector" fill-rule="evenodd" clip-rule="evenodd" d="M20.7703 10C15.0645 10 10.8424 14.9941 11.0314 20.4102C11.2129 25.6135 10.9771 32.3525 9.28066 37.8482C7.57812 43.3594 4.70078 46.8518 0 47.3V52.3609C4.70078 52.8102 7.57812 56.3008 9.28047 61.8127C10.9771 67.3084 11.2127 74.0475 11.0312 79.2508C10.8422 84.666 15.0643 89.6609 20.7711 89.6609H79.2373C84.9432 89.6609 89.1645 84.6668 88.9754 79.2508C88.7939 74.0475 89.0297 67.3084 90.7262 61.8127C92.4287 56.3008 95.299 52.8088 100 52.3609V47.3C95.2992 46.8508 92.4289 43.3602 90.7262 37.8482C89.0295 32.3533 88.7939 25.6135 88.9754 20.4102C89.1645 14.9949 84.9432 10 79.2373 10H20.7695H20.7703ZM67.7967 59.0365C67.7967 66.4941 62.234 71.017 53.0025 71.017H37.2881C36.8386 71.017 36.4075 70.8384 36.0896 70.5206C35.7717 70.2027 35.5932 69.7716 35.5932 69.3221V30.3391C35.5932 29.8895 35.7717 29.4584 36.0896 29.1406C36.4075 28.8227 36.8386 28.6441 37.2881 28.6441H52.9131C60.6105 28.6441 65.6623 32.8137 65.6623 39.2152C65.6623 43.7084 62.2639 47.7309 57.9344 48.4355V48.6699C63.8281 49.3164 67.7967 53.3984 67.7967 59.0365ZM51.2891 34.017H42.3289V46.6732H49.8756C55.7096 46.6732 58.9264 44.324 58.9264 40.125C58.9258 36.1898 56.1602 34.017 51.2891 34.017ZM42.3289 51.6949V65.6424H51.6187C57.693 65.6424 60.9104 63.2051 60.9104 58.6246C60.9104 54.0441 57.6027 51.6941 51.2281 51.6941H42.3289V51.6949Z" fill="#7952B3"/>
</g>
</g>
</svg>
