<svg width="100" height="100" viewBox="0 0 100 100" fill="none" xmlns="http://www.w3.org/2000/svg">
<g id="java">
<g id="java_2">
<path id="Vector" d="M36.7526 77.3362C36.7526 77.3362 32.9313 79.5584 39.4722 80.3103C47.3966 81.2143 51.4463 81.0848 60.179 79.4319C60.179 79.4319 62.475 80.8715 65.681 82.1185C46.1052 90.5083 21.3765 81.6324 36.7526 77.3362ZM34.3605 66.3878C34.3605 66.3878 30.0745 69.5605 36.6203 70.2375C45.0852 71.1107 51.77 71.1822 63.3375 68.9548C63.3375 68.9548 64.9375 70.5768 67.4533 71.4639C43.7846 78.3849 17.4221 72.0097 34.3605 66.3878Z" fill="#5382A1"/>
<path id="Vector_2" d="M54.5266 47.8159C59.3503 53.3692 53.2594 58.3666 53.2594 58.3666C53.2594 58.3666 65.507 52.044 59.8822 44.1263C54.6289 36.7432 50.6 33.0742 72.4098 20.4255C72.4098 20.4255 38.1757 28.9755 54.5266 47.8156" fill="#E76F00"/>
<path id="Vector_3" d="M80.4175 85.4344C80.4175 85.4344 83.2454 87.7643 77.303 89.567C66.0036 92.9902 30.2732 94.0238 20.3473 89.7034C16.7794 88.1514 23.4705 85.9973 25.5752 85.545C27.7701 85.069 29.0247 85.1579 29.0247 85.1579C25.0566 82.3624 3.37677 90.6467 18.0125 93.0188C57.9258 99.4917 90.7704 90.1044 80.4175 85.4344ZM38.5901 55.0441C38.5901 55.0441 20.4156 59.3611 32.1543 60.9284C37.1105 61.592 46.9909 61.442 56.1944 60.6707C63.7159 60.0366 71.2685 58.6873 71.2685 58.6873C71.2685 58.6873 68.6163 59.8232 66.6976 61.1333C48.2414 65.9874 12.5875 63.7293 22.8518 58.7641C31.5324 54.5681 38.5904 55.0441 38.5904 55.0441H38.5901ZM71.1935 73.2681C89.9554 63.5188 81.2806 54.15 75.2258 55.4124C73.7417 55.721 73.0801 55.9886 73.0801 55.9886C73.0801 55.9886 73.6311 55.1258 74.6833 54.7522C86.6613 50.5409 95.8735 67.1725 70.8165 73.7595C70.8165 73.7597 71.1069 73.5003 71.1935 73.2681Z" fill="#5382A1"/>
<path id="Vector_4" d="M59.8822 0.000777813C59.8822 0.000777813 70.2727 10.3951 50.0272 26.3777C33.7927 39.1989 46.3252 46.5091 50.0206 54.8614C40.5441 46.3114 33.5894 38.7846 38.2553 31.7796C45.1031 21.4962 64.0743 16.5107 59.8822 0.000488281" fill="#E76F00"/>
<path id="Vector_5" d="M40.4338 99.6861C58.4426 100.839 86.097 99.0465 86.752 90.5253C86.752 90.5253 85.4931 93.7559 71.8687 96.3211C56.4978 99.2136 37.5401 98.876 26.296 97.0221C26.2963 97.0221 28.5978 98.9272 40.4341 99.6861" fill="#5382A1"/>
</g>
</g>
</svg>
