<svg width="100" height="100" viewBox="0 0 100 100" fill="none" xmlns="http://www.w3.org/2000/svg">
<g id="vitejs">
<g id="vitejs_2">
<path id="Vector" d="M98.848 14.8014L52.7313 98.6951C51.779 100.427 49.3328 100.437 48.3664 98.7139L1.33543 14.8092C0.28237 12.9311 1.86119 10.6559 3.9535 11.0366L50.1197 19.4312C50.4142 19.4847 50.7158 19.4842 51.0102 19.4296L96.2107 11.0484C98.2961 10.6617 99.8822 12.9194 98.848 14.8014Z" fill="url(#paint0_linear_790_3556)"/>
<path id="Vector_2" d="M72.1109 0.025109L37.9835 6.82829C37.7108 6.88263 37.4636 7.02763 37.2808 7.24048C37.0979 7.45333 36.9898 7.72197 36.9734 8.00415L34.8742 44.0745C34.8626 44.2723 34.8966 44.4702 34.9733 44.6523C35.05 44.8345 35.1675 44.9959 35.3162 45.1238C35.465 45.2518 35.6411 45.3426 35.8304 45.3892C36.0197 45.4359 36.2171 45.4369 36.407 45.3924L45.9086 43.1616C46.7976 42.9529 47.601 43.7495 47.4181 44.6589L44.5952 58.7221C44.4054 59.6686 45.2786 60.4777 46.1871 60.1968L52.056 58.3831C52.9656 58.1022 53.84 58.9137 53.6474 59.8609L49.1614 81.9508C48.8807 83.3326 50.6873 84.086 51.4405 82.9015L51.944 82.1103L79.753 25.65C80.219 24.7047 79.4156 23.6267 78.3955 23.8273L68.6146 25.7475C67.6958 25.9277 66.9138 25.057 67.1731 24.1425L73.5566 1.62974C73.8162 0.712918 73.0312 -0.158255 72.1113 0.025109H72.1109Z" fill="url(#paint1_linear_790_3556)"/>
</g>
</g>
<defs>
<linearGradient id="paint0_linear_790_3556" x1="0.187129" y1="17.8052" x2="51.0375" y2="85.688" gradientUnits="userSpaceOnUse">
<stop stop-color="#41D1FF"/>
<stop offset="1" stop-color="#BD34FE"/>
</linearGradient>
<linearGradient id="paint1_linear_790_3556" x1="54.3984" y1="1.87231" x2="64.9803" y2="73.2245" gradientUnits="userSpaceOnUse">
<stop stop-color="#FFEA83"/>
<stop offset="0.083" stop-color="#FFDD35"/>
<stop offset="1" stop-color="#FFA800"/>
</linearGradient>
</defs>
</svg>
