<svg width="100" height="100" viewBox="0 0 100 100" fill="none" xmlns="http://www.w3.org/2000/svg">
<g id="vscode">
<g id="vscode_2">
<path id="Vector" d="M0.951416 35.4988C0.951416 35.4988 -1.48421 33.7432 1.43854 31.3989L8.24814 25.3098C8.24814 25.3098 10.1966 23.2598 12.2568 25.0459L75.0959 72.6219V95.4356C75.0959 95.4356 75.0655 99.018 70.4682 98.6222L0.951416 35.4988Z" fill="#2489CA"/>
<path id="Vector_2" d="M17.1483 50.2041L0.95141 64.9295C0.95141 64.9295 -0.712936 66.1676 0.95141 68.3799L8.47141 75.22C8.47141 75.22 10.2575 77.138 12.8961 74.9561L30.0673 61.9357L17.1483 50.2041Z" fill="#1070B3"/>
<path id="Vector_3" d="M45.5843 50.3258L75.2889 27.644L75.0961 4.95198C75.0961 4.95198 73.8275 -0.000470996 69.5956 2.57724L30.0674 38.5536L45.5843 50.3258Z" fill="#0877B9"/>
<path id="Vector_4" d="M70.4683 98.6528C72.1936 100.419 74.2842 99.8402 74.2842 99.8402L97.4327 88.4333C100.396 86.4138 99.98 83.9071 99.98 83.9071V15.7907C99.98 12.7969 96.9152 11.7618 96.9152 11.7618L76.8517 2.09027C72.4676 -0.619366 69.5956 2.5774 69.5956 2.5774C69.5956 2.5774 73.2896 -0.0814977 75.096 4.95214V95.0197C75.096 95.6388 74.9641 96.2477 74.7002 96.7957C74.1725 97.8613 73.0258 98.8558 70.2755 98.4397L70.4683 98.6528Z" fill="#3C99D4"/>
</g>
</g>
</svg>
